#!OML:ASF X:\für Bonn\!DataBase\2005_08_10_Bjorn_Final\c3d\bjorn.ASF
:FULLY-SPECIFIED
:DEGREES
47
root 0.368894 16.6119 3.34877 -180.954 -2.10738 180.557
lowerback 13.4147 1.35712 3.49579
upperback 9.38988 0.724002 -1.27037
thorax 2.48445 -0.0360426 -3.3994
lowerneck -20.5527 -1.15319 3.57169
upperneck 7.3381 -2.46984 -1.19471
head 5.44587 -1.24522 -1.21014
rclavicle -9.64106e-015 1.78906e-014
rhumerus 81.3386 -1.08087 -76.0371
rradius 9.69257
rwrist 46.2723
rhand -11.0417 8.96089
rfingers 7.12502
rthumb 14.9803 -20.4773
lclavicle -9.64106e-015 1.78906e-014
lhumerus 84.8511 -9.10389 54.4876
lradius 11.3225
lwrist -39.0298
lhand -18.308 -8.39092
lfingers 7.12502
lthumb 7.9731 21.4387
rfemur -34.1261 -9.26913 17.9631
rtibia 73.627
rfoot -34.5707 11.4774
rtoes -20.2926
lfemur -36.2932 4.65821 -17.8578
ltibia 78.7201
lfoot -26.0614 -2.31102
ltoes -28.9145
48
root 0.37213 16.4391 3.38001 -181.05 -2.10577 180.557
lowerback 13.9183 1.38067 3.52385
upperback 9.53443 0.711761 -1.30314
thorax 2.37418 -0.0646438 -3.45443
lowerneck -20.677 -1.14672 3.71255
upperneck 7.04349 -2.50961 -1.27782
head 5.36718 -1.27814 -1.26206
rclavicle -2.24627e-014 5.1684e-015
rhumerus 81.609 -1.29397 -76.1115
rradius 9.51849
rwrist 46.4201
rhand -11.3806 9.03634
rfingers 7.12502
rthumb 14.6538 -20.4259
lclavicle -2.24627e-014 5.1684e-015
lhumerus 85.0352 -9.01949 53.9367
lradius 11.5687
lwrist -38.2331
lhand -18.6317 -8.47446
lfingers 7.12502
lthumb 7.66061 21.3668
rfemur -35.4502 -9.33165 17.9087
rtibia 75.9627
rfoot -34.9699 11.6589
rtoes -21.0344
lfemur -37.5686 4.74295 -17.6757
ltibia 80.9493
lfoot -26.267 -2.94806
ltoes -29.581
49
root 0.375288 16.2623 3.40991 -181.142 -2.09285 180.505
lowerback 14.4224 1.40107 3.45052
upperback 9.66041 0.687026 -1.31465
thorax 2.23959 -0.104649 -3.42802
lowerneck -20.6528 -1.14584 3.76497
upperneck 6.67582 -2.53201 -1.32449
head 5.24438 -1.30327 -1.28413
rclavicle -1.2424e-014 8.34896e-015
rhumerus 81.8452 -1.45317 -76.1501
rradius 9.39756
rwrist 46.5251
rhand -11.6598 9.08838
rfingers 7.12502
rthumb 14.3848 -20.3932
lclavicle -1.2424e-014 8.34896e-015
lhumerus 85.1248 -8.90442 53.4824
lradius 11.8362
lwrist -37.5043
lhand -18.9654 -8.55621
lfingers 7.12502
lthumb 7.33852 21.2965
rfemur -36.818 -9.43498 17.781
rtibia 78.3417
rfoot -35.1594 11.9333
rtoes -21.6946
lfemur -38.8189 4.83092 -17.5238
ltibia 83.1506
lfoot -26.4503 -3.81288
ltoes -29.88
50
root 0.378807 16.0811 3.43862 -181.281 -2.0687 180.452
lowerback 14.9552 1.43202 3.38659
upperback 9.804 0.669888 -1.32925
thorax 2.11138 -0.142865 -3.41127
lowerneck -20.6381 -1.13994 3.82388
upperneck 6.2985 -2.55226 -1.36802
head 5.12022 -1.32786 -1.30599
rclavicle -1.23246e-014 5.76476e-015
rhumerus 82.0719 -1.61024 -76.1939
rradius 9.29041
rwrist 46.6336
rhand -11.8854 9.06479
rfingers 7.12502
rthumb 14.1675 -20.4321
lclavicle -1.23246e-014 5.76476e-015
lhumerus 85.2339 -8.76953 53.0408
lradius 12.1
lwrist -36.8764
lhand -19.2191 -8.68649
lfingers 7.12502
lthumb 7.09363 21.1746
rfemur -38.17 -9.55806 17.6217
rtibia 80.7608
rfoot -35.1264 12.3801
rtoes -22.221
lfemur -40.0042 4.93289 -17.3463
ltibia 85.3375
lfoot -26.645 -4.77011
ltoes -30.0054
51
root 0.382117 15.8911 3.46675 -181.391 -2.07625 180.38
lowerback 15.4621 1.45962 3.30948
upperback 9.91566 0.653986 -1.35002
thorax 1.96331 -0.178193 -3.39297
lowerneck -20.654 -1.1525 3.84709
upperneck 5.96884 -2.5951 -1.35668
head 5.01664 -1.35956 -1.30771
rclavicle -1.04362e-014 4.17448e-015
rhumerus 82.2467 -1.7842 -76.2334
rradius 9.14171
rwrist 46.773
rhand -12.1643 9.06188
rfingers 7.12502
rthumb 13.8987 -20.4537
lclavicle -1.04362e-014 4.17448e-015
lhumerus 85.3186 -8.68339 52.6169
lradius 12.3718
lwrist -36.2831
lhand -19.3953 -8.88891
lfingers 7.12502
lthumb 6.92356 20.9779
rfemur -39.6079 -9.74556 17.4311
rtibia 83.2343
rfoot -35.0095 12.7277
rtoes -23.3342
lfemur -41.2576 5.04314 -17.1908
ltibia 87.5564
lfoot -26.8111 -5.73867
ltoes -30.1452
52
root 0.385982 15.6905 3.49416 -181.445 -2.0744 180.328
lowerback 15.8911 1.4835 3.22423
upperback 10.0185 0.634901 -1.34828
thorax 1.84649 -0.213309 -3.34492
lowerneck -20.7252 -1.16998 3.78809
upperneck 5.65576 -2.63533 -1.27512
head 4.92894 -1.38761 -1.27474
rclavicle -1.68967e-015 1.2921e-014
rhumerus 82.418 -1.93279 -76.2549
rradius 9.02561
rwrist 46.9452
rhand -12.3979 9.02729
rfingers 7.12502
rthumb 13.6735 -20.5035
lclavicle -1.68967e-015 1.2921e-014
lhumerus 85.3644 -8.53885 52.3404
lradius 12.6573
lwrist -35.9759
lhand -19.4719 -9.19281
lfingers 7.12502
lthumb 6.84961 20.6764
rfemur -41.1651 -9.93776 17.2535
rtibia 85.7492
rfoot -34.8292 13.0616
rtoes -24.7845
lfemur -42.6102 5.22869 -17.0068
ltibia 89.8252
lfoot -27.0211 -6.64427
ltoes -30.5874
53
root 0.38988 15.4795 3.52122 -181.502 -2.07385 180.293
lowerback 16.3294 1.50361 3.1589
upperback 10.106 0.615713 -1.34342
thorax 1.70986 -0.247096 -3.30453
lowerneck -20.742 -1.17267 3.72492
upperneck 5.28052 -2.65652 -1.17766
head 4.81421 -1.40728 -1.23311
rclavicle 1.58034e-014 1.37161e-014
rhumerus 82.5647 -2.07703 -76.2787
rradius 8.89378
rwrist 47.1207
rhand -12.6392 8.99298
rfingers 7.12502
rthumb 13.4409 -20.5534
lclavicle 1.58034e-014 1.37161e-014
lhumerus 85.388 -8.39662 52.1417
lradius 12.9091
lwrist -35.8086
lhand -19.5353 -9.60394
lfingers 7.12502
lthumb 6.7884 20.2672
rfemur -42.7281 -10.0958 17.0219
rtibia 88.2702
rfoot -34.419 13.9299
rtoes -25.1914
lfemur -44.007 5.46904 -16.816
ltibia 92.1335
lfoot -27.2835 -7.42398
ltoes -31.3858
54
root 0.393519 15.2636 3.54773 -181.55 -2.07378 180.257
lowerback 16.7532 1.52693 3.09448
upperback 10.1845 0.602649 -1.33217
thorax 1.57234 -0.276966 -3.25833
lowerneck -20.6975 -1.19025 3.61762
upperneck 4.86396 -2.68968 -1.02914
head 4.67838 -1.43127 -1.16852
rclavicle -9.24349e-015 -8.74653e-015
rhumerus 82.6988 -2.21131 -76.2883
rradius 8.75418
rwrist 47.4001
rhand -12.8359 8.92862
rfingers 7.12502
rthumb 13.2514 -20.6302
lclavicle -9.24349e-015 -8.74653e-015
lhumerus 85.4078 -8.27255 51.93
lradius 13.1218
lwrist -35.6898
lhand -19.6518 -9.96654
lfingers 7.12502
lthumb 6.676 19.9082
rfemur -44.3079 -10.2386 16.7303
rtibia 90.7806
rfoot -33.8738 15.1854
rtoes -24.8921
lfemur -45.41 5.77868 -16.6254
ltibia 94.4451
lfoot -27.5593 -8.19293
ltoes -32.2055
55
root 0.39753 15.0451 3.57141 -181.606 -2.07388 180.187
lowerback 17.165 1.55531 3.01409
upperback 10.2688 0.591069 -1.35019
thorax 1.44831 -0.306233 -3.2341
lowerneck -20.7034 -1.20514 3.49218
upperneck 4.49334 -2.72569 -0.792687
head 4.56643 -1.45067 -1.07474
rclavicle -4.67144e-015 1.0138e-014
rhumerus 82.8159 -2.38928 -76.326
rradius 8.64293
rwrist 47.7178
rhand -12.7938 8.86696
rfingers 7.12502
rthumb 13.2919 -20.6892
lclavicle -4.67144e-015 1.0138e-014
lhumerus 85.4594 -8.1483 51.681
lradius 13.2514
lwrist -35.7511
lhand -19.9253 -10.3262
lfingers 7.12502
lthumb 6.41197 19.5567
rfemur -45.8635 -10.4399 16.3585
rtibia 93.2558
rfoot -33.3499 16.4796
rtoes -24.7183
lfemur -46.7899 6.12124 -16.4648
ltibia 96.7244
lfoot -27.7852 -9.06483
ltoes -32.6975
56
root 0.401607 14.8274 3.59379 -181.683 -2.09351 180.119
lowerback 17.5915 1.57101 2.91801
upperback 10.3509 0.559534 -1.34584
thorax 1.31275 -0.347424 -3.17405
lowerneck -20.6491 -1.21364 3.35066
upperneck 4.08448 -2.74499 -0.571308
head 4.43408 -1.46451 -0.980826
rclavicle -1.78906e-015 -1.43125e-014
rhumerus 82.9575 -2.51636 -76.3317
rradius 8.49628
rwrist 48.0901
rhand -12.6505 8.74412
rfingers 7.12502
rthumb 13.4301 -20.8029
lclavicle -1.78906e-015 -1.43125e-014
lhumerus 85.4717 -7.97939 51.4035
lradius 13.3577
lwrist -35.8555
lhand -20.2927 -10.7111
lfingers 7.12502
lthumb 6.05724 19.1823
rfemur -47.3985 -10.6792 15.9568
rtibia 95.6758
rfoot -32.9233 17.7848
rtoes -24.8187
lfemur -48.1212 6.49576 -16.2939
ltibia 98.95
lfoot -27.9672 -10.067
ltoes -32.838
57
root 0.405168 14.6102 3.61219 -181.824 -2.09266 180.035
lowerback 18.0403 1.59994 2.84506
upperback 10.4585 0.538227 -1.37696
thorax 1.1969 -0.38455 -3.1665
lowerneck -20.6609 -1.21598 3.25081
upperneck 3.75542 -2.7696 -0.327871
head 4.33674 -1.47726 -0.888649
rclavicle -3.47873e-015 -8.94531e-015
rhumerus 83.1002 -2.68154 -76.3868
rradius 8.33051
rwrist 48.4464
rhand -12.4929 8.67376
rfingers 7.12502
rthumb 13.582 -20.8632
lclavicle -3.47873e-015 -8.94531e-015
lhumerus 85.5265 -7.83864 51.0757
lradius 13.4448
lwrist -35.8865
lhand -20.5766 -11.1214
lfingers 7.12502
lthumb 5.78313 18.7797
rfemur -48.8044 -10.9478 15.4754
rtibia 98.0334
rfoot -32.6535 19.1623
rtoes -25.0023
lfemur -49.3213 6.9265 -16.1225
ltibia 101.125
lfoot -28.071 -11.1913
ltoes -32.5243
58
root 0.408825 14.3895 3.62925 -181.995 -2.12095 179.947
lowerback 18.5219 1.62113 2.75408
upperback 10.5594 0.503414 -1.38909
thorax 1.05623 -0.430623 -3.12615
lowerneck -20.7524 -1.20788 3.24414
upperneck 3.54938 -2.78522 -0.262771
head 4.28633 -1.49207 -0.868282
rclavicle 1.71949e-014 -1.70955e-014
rhumerus 83.2334 -2.8415 -76.4173
rradius 8.12438
rwrist 48.6376
rhand -12.3659 8.59076
rfingers 7.12502
rthumb 13.7044 -20.938
lclavicle 1.71949e-014 -1.70955e-014
lhumerus 85.576 -7.68874 50.7367
lradius 13.4885
lwrist -35.8284
lhand -20.8477 -11.4909
lfingers 7.12502
lthumb 5.52136 18.4171
rfemur -50.1353 -11.3 14.9538
rtibia 100.367
rfoot -32.5617 20.5367
rtoes -25.3468
lfemur -50.4912 7.36508 -15.9471
ltibia 103.265
lfoot -28.0756 -12.4911
ltoes -31.6732
